<svg xmlns="http://www.w3.org/2000/svg" width="330" height="330" fill="none" viewBox="0 0 330 330"><path fill="#fff" d="M248.484 68.6797C253.27 64.7734 254.344 58.5234 252.488 52.8594C247.801 38.6016 231.883 34.8906 218.699 36.8438C206.004 38.6992 193.992 44.6562 182.273 49.6367C180.711 50.3203 179.148 51.0039 177.586 51.5898C177.684 51.9805 177.781 52.3711 177.781 52.7617C178.758 83.2305 178.758 113.797 178.66 144.266C178.562 171.707 178.172 199.148 177.586 226.492C177.293 239.773 177.195 253.055 176.414 266.336C175.828 277.176 174.168 288.602 168.406 298.074C158.641 314.09 137.547 321.805 119.969 313.797C104.637 306.766 101.512 286.258 116.844 277.273C120.359 275.223 126.512 275.027 130.027 277.078C133.348 278.934 133.543 281.961 130.223 283.914C122.508 288.406 123.973 301.688 131.199 305.789C140.379 311.062 149.168 298.953 152.488 291.824C157.957 280.398 157.859 267.215 158.25 254.812C158.641 241.336 158.934 227.957 159.227 214.48C160.203 162.527 159.812 110.672 159.617 58.7188C154.441 60.6719 149.168 62.625 143.895 64.2852C121.727 71.5117 93.6016 80.8867 70.6523 72.293C62.6445 69.3633 53.1719 63.2109 52.6836 53.6406C52.293 45.5352 60.1055 37.5273 67.332 35.1836C74.7539 32.7422 83.9336 33.9141 89.207 39.9688C93.9922 45.5352 92.8203 52.0781 86.5703 55.5938C85.3008 56.2773 78.1719 56.7656 79.6367 53.6406C81.3945 49.9297 80.0273 42.2148 75.2422 41.043C68.6016 39.5781 68.5039 50.3203 69.9688 54.0312C75.3398 67.6055 91.7461 66.5312 103.465 64.2852C128.562 59.5977 152.586 50.125 175.926 40.0664C197.215 30.9844 219.383 22.8789 242.723 28.4453C259.129 32.3516 281.59 50.8086 268.309 69.168C263.328 76.1016 254.832 79.5195 246.727 80.5938C241.062 81.2773 225.926 81.668 225.438 73.3672C225.242 69.8516 231.883 69.6562 233.836 69.8516C239.598 70.3398 243.504 72.5859 248.484 68.6797Z"/></svg>